<mxfile host="65bd71144e">
    <diagram id="JNNhF5eDWyU3KxfiN6BV" name="Page-1">
        <mxGraphModel dx="769" dy="302" grid="1" gridSize="10" guides="1" tooltips="1" connect="1" arrows="1" fold="1" page="1" pageScale="1" pageWidth="850" pageHeight="1100" math="0" shadow="0">
            <root>
                <mxCell id="0"/>
                <mxCell id="1" parent="0"/>
                <mxCell id="2" value="API" style="rounded=1;whiteSpace=wrap;html=1;" vertex="1" parent="1">
                    <mxGeometry x="190" y="30" width="150" height="110" as="geometry"/>
                </mxCell>
                <mxCell id="3" value="Controllers" style="rounded=0;whiteSpace=wrap;html=1;" vertex="1" parent="1">
                    <mxGeometry x="145" y="40" width="70" height="70" as="geometry"/>
                </mxCell>
                <mxCell id="6" style="edgeStyle=none;html=1;entryX=0;entryY=0.5;entryDx=0;entryDy=0;" edge="1" parent="1" source="5" target="3">
                    <mxGeometry relative="1" as="geometry">
                        <Array as="points">
                            <mxPoint x="60" y="170"/>
                            <mxPoint x="60" y="75"/>
                        </Array>
                    </mxGeometry>
                </mxCell>
                <mxCell id="5" value="Test" style="rounded=1;whiteSpace=wrap;html=1;" vertex="1" parent="1">
                    <mxGeometry x="205" y="140" width="120" height="60" as="geometry"/>
                </mxCell>
                <mxCell id="7" value="MockMVC" style="rounded=0;whiteSpace=wrap;html=1;fontSize=8;" vertex="1" parent="1">
                    <mxGeometry x="185" y="145" width="60" height="50" as="geometry"/>
                </mxCell>
                <mxCell id="8" value="MockMVC" style="rounded=1;whiteSpace=wrap;html=1;fontSize=12;" vertex="1" parent="1">
                    <mxGeometry x="120" y="260" width="90" height="110" as="geometry"/>
                </mxCell>
                <mxCell id="13" style="edgeStyle=none;html=1;entryX=1;entryY=0.5;entryDx=0;entryDy=0;entryPerimeter=0;fontSize=12;" edge="1" parent="1" source="9" target="11">
                    <mxGeometry relative="1" as="geometry"/>
                </mxCell>
                <mxCell id="9" value="Controllers" style="rounded=1;whiteSpace=wrap;html=1;fontSize=12;" vertex="1" parent="1">
                    <mxGeometry x="230" y="260" width="120" height="110" as="geometry"/>
                </mxCell>
                <mxCell id="11" value="Interface" style="shape=xor;whiteSpace=wrap;html=1;fontSize=12;flipV=0;flipH=1;" vertex="1" parent="1">
                    <mxGeometry x="380" y="275" width="80" height="80" as="geometry"/>
                </mxCell>
                <mxCell id="12" value="Implementação" style="ellipse;whiteSpace=wrap;html=1;aspect=fixed;fontSize=12;" vertex="1" parent="1">
                    <mxGeometry x="450" y="265" width="100" height="100" as="geometry"/>
                </mxCell>
                <mxCell id="14" value="Mock" style="ellipse;whiteSpace=wrap;html=1;aspect=fixed;fontSize=12;fillColor=#e3c800;dashed=1;dashPattern=1 1;strokeColor=#B09500;fontColor=#000000;" vertex="1" parent="1">
                    <mxGeometry x="490" y="200" width="100" height="100" as="geometry"/>
                </mxCell>
                <mxCell id="15" value="" style="shape=curlyBracket;whiteSpace=wrap;html=1;rounded=1;flipH=1;labelPosition=right;verticalLabelPosition=middle;align=left;verticalAlign=middle;strokeColor=#FFFFFF;fontSize=12;fillColor=default;rotation=90;strokeWidth=3;" vertex="1" parent="1">
                    <mxGeometry x="377.5" y="237.5" width="20" height="315" as="geometry"/>
                </mxCell>
                <mxCell id="16" value="Testes Integrados: Mais de uma camada envolvida" style="text;html=1;strokeColor=none;fillColor=none;align=center;verticalAlign=middle;whiteSpace=wrap;rounded=0;strokeWidth=3;fontSize=12;" vertex="1" parent="1">
                    <mxGeometry x="232.5" y="410" width="310" height="30" as="geometry"/>
                </mxCell>
            </root>
        </mxGraphModel>
    </diagram>
</mxfile>